<?xml version="1.0" encoding="iso-8859-1"?>
<!-- Generator: Adobe Illustrator 19.0.0, SVG Export Plug-In . SVG Version: 6.00 Build 0)  -->
<svg version="1.1" id="Capa_1" xmlns="http://www.w3.org/2000/svg" xmlns:xlink="http://www.w3.org/1999/xlink" x="0px" y="0px"
	 viewBox="0 0 522.48 522.48" style="enable-background:new 0 0 522.48 522.48;" xml:space="preserve">
<g>
	<g>
		<path d="M519.548,309.722l-52.682-91.126l-3.069-4.114c-3.657-4.049-8.642-6.64-14.15-7.119
			c-7.097-0.522-14.019,2.264-18.591,7.706l-69.945,83.42c-7.728,9.208-6.531,22.945,2.678,30.651
			c9.208,7.728,22.967,6.531,30.651-2.678l31.696-37.77c-12.038,61.672-61.324,116.269-126.305,131.508
			c-55.033,12.931-111.959-3.178-152.254-43.038c-8.555-8.468-22.313-8.403-30.782,0.174c-8.468,8.555-8.381,22.313,0.174,30.782
			c39.446,38.967,91.409,59.974,145.179,59.974c15.826,0,31.805-1.829,47.653-5.551c78.478-18.395,138.844-82.745,157.043-157
			l14.999,25.949c4.049,6.988,11.342,10.885,18.852,10.885c3.701,0,7.467-0.936,10.885-2.939
			C522.008,333.428,525.578,320.127,519.548,309.722z M161.423,215.33c-9.23-7.706-22.945-6.531-30.651,2.699l-37.508,44.736
			c0.697-27.908,8.621-55.49,23.62-80.481c24.186-40.36,63.74-69.531,108.476-80.024c58.668-13.78,119.905,5.812,159.83,51.049
			c7.946,9.012,21.682,9.883,30.716,1.937c9.012-7.946,9.883-21.704,1.937-30.716C367.294,67.212,289.73,42.417,215.41,59.898
			c-56.143,13.127-105.668,49.569-135.884,99.986c-13.584,22.662-22.401,47.065-26.754,72.1l-12.321-20.55
			c-6.204-10.297-19.571-13.628-29.889-7.445c-10.297,6.182-13.649,19.549-7.445,29.867l55.751,92.78
			c3.614,6.03,9.927,9.949,16.936,10.493l1.698,0.065c6.4,0,12.517-2.83,16.697-7.772l69.923-83.398
			C171.85,236.751,170.653,223.036,161.423,215.33z"/>
	</g>
</g>
<g>
</g>
<g>
</g>
<g>
</g>
<g>
</g>
<g>
</g>
<g>
</g>
<g>
</g>
<g>
</g>
<g>
</g>
<g>
</g>
<g>
</g>
<g>
</g>
<g>
</g>
<g>
</g>
<g>
</g>
</svg>
