<?xml version="1.0" encoding="iso-8859-1"?>
<!-- Generator: Adobe Illustrator 17.1.0, SVG Export Plug-In . SVG Version: 6.00 Build 0)  -->
<!DOCTYPE svg PUBLIC "-//W3C//DTD SVG 1.1//EN" "http://www.w3.org/Graphics/SVG/1.1/DTD/svg11.dtd">
<svg version="1.1" id="Capa_1" xmlns="http://www.w3.org/2000/svg" xmlns:xlink="http://www.w3.org/1999/xlink" x="0px" y="0px"
	 viewBox="0 0 222.793 222.793" style="enable-background:new 0 0 222.793 222.793;" xml:space="preserve">
<path d="M73.646,105.896h-6.25v-9.5h6.25c2.619,0,4.75,2.131,4.75,4.75S76.266,105.896,73.646,105.896z M111.521,105.896h-6.25v-9.5
	h6.25c2.619,0,4.75,2.131,4.75,4.75S114.141,105.896,111.521,105.896z M181.021,105.896v-9.5h6.25c2.619,0,4.75,2.131,4.75,4.75
	s-2.131,4.75-4.75,4.75H181.021z M207.034,68.19H15.759C7.055,68.19,0,75.246,0,83.949v54.895c0,8.703,7.055,15.759,15.759,15.759
	h191.276c8.703,0,15.759-7.055,15.759-15.759V83.949C222.793,75.246,215.737,68.19,207.034,68.19z M44.271,105.896
	c2.761,0,5,2.239,5,5s-2.239,5-5,5h-13.5v9.5h13.5c2.761,0,5,2.239,5,5s-2.239,5-5,5h-18.5c-2.761,0-5-2.239-5-5v-39
	c0-2.761,2.239-5,5-5h18.5c2.761,0,5,2.239,5,5s-2.239,5-5,5h-13.5v9.5H44.271z M87.176,128.124
	c1.808,2.088,1.581,5.245-0.507,7.053c-0.946,0.819-2.111,1.22-3.271,1.22c-1.4,0-2.793-0.585-3.782-1.727l-12.22-14.113v9.84
	c0,2.761-2.239,5-5,5s-5-2.239-5-5v-39c0-2.761,2.239-5,5-5h11.25c8.133,0,14.75,6.617,14.75,14.75
	c0,7.203-5.189,13.216-12.025,14.498L87.176,128.124z M125.051,128.124c1.808,2.088,1.581,5.245-0.507,7.053
	c-0.946,0.819-2.111,1.22-3.271,1.22c-1.4,0-2.793-0.585-3.782-1.727l-12.22-14.113v9.84c0,2.761-2.239,5-5,5s-5-2.239-5-5v-39
	c0-2.761,2.239-5,5-5h11.25c8.133,0,14.75,6.617,14.75,14.75c0,7.203-5.189,13.216-12.025,14.498L125.051,128.124z M164.146,120.896
	c0,8.547-6.953,15.5-15.5,15.5s-15.5-6.953-15.5-15.5v-19c0-8.547,6.953-15.5,15.5-15.5s15.5,6.953,15.5,15.5V120.896z
	 M200.801,128.124c1.808,2.088,1.581,5.245-0.507,7.053c-0.946,0.819-2.111,1.22-3.271,1.22c-1.4,0-2.793-0.585-3.782-1.727
	l-12.22-14.113v9.84c0,2.761-2.239,5-5,5s-5-2.239-5-5v-39c0-2.761,2.239-5,5-5h11.25c8.133,0,14.75,6.617,14.75,14.75
	c0,7.203-5.189,13.216-12.025,14.498L200.801,128.124z M154.146,120.896c0,3.033-2.467,5.5-5.5,5.5s-5.5-2.467-5.5-5.5v-19
	c0-3.033,2.467-5.5,5.5-5.5s5.5,2.467,5.5,5.5V120.896z"/>
<g>
</g>
<g>
</g>
<g>
</g>
<g>
</g>
<g>
</g>
<g>
</g>
<g>
</g>
<g>
</g>
<g>
</g>
<g>
</g>
<g>
</g>
<g>
</g>
<g>
</g>
<g>
</g>
<g>
</g>
</svg>
