<?xml version="1.0" encoding="iso-8859-1"?>
<!-- Generator: Adobe Illustrator 18.0.0, SVG Export Plug-In . SVG Version: 6.00 Build 0)  -->
<!DOCTYPE svg PUBLIC "-//W3C//DTD SVG 1.1//EN" "http://www.w3.org/Graphics/SVG/1.1/DTD/svg11.dtd">
<svg version="1.1" id="Capa_1" xmlns="http://www.w3.org/2000/svg" xmlns:xlink="http://www.w3.org/1999/xlink" x="0px" y="0px"
	 viewBox="0 0 490 490" style="enable-background:new 0 0 490 490;" xml:space="preserve">
<g>
	<g>
		<path d="M197.972,375.69c10.408-4.046,22.136-10.36,35.238-19.224c-4.207-14.417-11.977-28.004-23.325-39.352
			c-14.761-14.762-33.638-23.892-54.038-26.378c-8.73,16.371-13.989,30.43-16.265,42.314
			C164.477,338.471,185.536,354.277,197.972,375.69z"/>
		<path d="M121,489.988c38.163-0.258,69.022-31.264,69.022-69.488c0-38.384-31.116-69.5-69.5-69.5
			c-38.213,0-69.238,31.009-69.514,69.157c0-0.02,0-0.037,0-0.037s0,0.013,0,0.047C51.008,436,30.1,490,0,490h121V489.988z"/>
	</g>
	<path d="M487.834,1.77l-0.001,0.002l-0.195-0.178l0.002-0.002c-15.428-14.08-146.838,66.886-246.759,175.847
		c-33.467,36.843-57.74,68.303-74.26,94.747c21.609,4.291,41.476,14.855,57.406,30.786c12.025,12.025,20.746,26.121,26.178,41.147
		c24.256-18.757,52.518-45.183,84.994-80.596C434.604,154.091,503.262,15.851,487.834,1.77z"/>
</g>
<g>
</g>
<g>
</g>
<g>
</g>
<g>
</g>
<g>
</g>
<g>
</g>
<g>
</g>
<g>
</g>
<g>
</g>
<g>
</g>
<g>
</g>
<g>
</g>
<g>
</g>
<g>
</g>
<g>
</g>
</svg>
