<?xml version='1.0' encoding='iso-8859-1'?>
<!DOCTYPE svg PUBLIC '-//W3C//DTD SVG 1.1//EN' 'http://www.w3.org/Graphics/SVG/1.1/DTD/svg11.dtd'>
<svg version="1.1" xmlns="http://www.w3.org/2000/svg" viewBox="0 0 366 366" xmlns:xlink="http://www.w3.org/1999/xlink" enable-background="new 0 0 366 366">
  <g>
    <path d="M363.071,40.359l-37.43-37.43C323.766,1.054,321.223,0,318.57,0H10C4.477,0,0,4.477,0,10v346c0,5.523,4.477,10,10,10h346   c5.522,0,10-4.477,10-10V47.43C366,44.778,364.946,42.234,363.071,40.359z M72,20h26v96H72V20z M118,20h150v96H118V20z M268,346H72   V193h196V346z M346,346h-58V183c0-5.523-4.478-10-10-10H62c-5.523,0-10,4.477-10,10v163H20V20h32v106c0,5.523,4.477,10,10,10h216   c5.522,0,10-4.477,10-10V20h26.428L346,51.572V346z"/>
    <path d="m234,33c-5.522,0-10,4.477-10,10v50c0,5.523 4.478,10 10,10s10-4.477 10-10v-50c0-5.523-4.478-10-10-10z"/>
    <path d="m106,242h128c5.522,0 10-4.477 10-10s-4.478-10-10-10h-128c-5.523,0-10,4.477-10,10s4.477,10 10,10z"/>
    <path d="m106,282h128c5.522,0 10-4.477 10-10s-4.478-10-10-10h-128c-5.523,0-10,4.477-10,10s4.477,10 10,10z"/>
    <path d="m106,322h128c5.522,0 10-4.477 10-10s-4.478-10-10-10h-128c-5.523,0-10,4.477-10,10s4.477,10 10,10z"/>
  </g>
</svg>
